<svg class="svg-icon" style="width: 1em; height: 1em;vertical-align: middle;fill: currentColor;overflow: hidden;" viewBox="0 0 1024 1024" version="1.1" xmlns="http://www.w3.org/2000/svg"><path d="M542.165333 439.125333A128 128 0 0 1 725.333333 554.666667v128a42.666667 42.666667 0 0 1-85.333333 0v-128a42.666667 42.666667 0 0 0-85.333333 0v128a42.666667 42.666667 0 0 1-85.333334 0v-213.333334a42.666667 42.666667 0 0 1 72.832-30.208zM213.333333 810.666667h469.333334a42.666667 42.666667 0 0 1 0 85.333333H170.666667a42.666667 42.666667 0 0 1-42.666667-42.666667V170.666667a42.666667 42.666667 0 0 1 42.666667-42.666667h682.666666a42.666667 42.666667 0 0 1 42.666667 42.666667v682.666666a42.666667 42.666667 0 0 1-85.333333 0V213.333333H213.333333v597.333334z m85.333334-341.333334a42.666667 42.666667 0 0 1 85.333333 0v213.333334a42.666667 42.666667 0 0 1-85.333333 0v-213.333334z m42.666666-85.333333a42.666667 42.666667 0 1 1 0-85.333333 42.666667 42.666667 0 0 1 0 85.333333z"  /></svg>